# xmcd
#
# Track frame offsets:
#	150
#	11276
#	21419
#	31772
#	41609
#	53587
#	64315
#	73685
#	84213
#	93626
#	103911
#	114182
#	122194
#	133106
#	143793
#	154538
#	165376
#	175366
#	182942
#	193932
#	204398
#	213975
#	223149
#	233014
#	242547
#	254604
#	267676
#	275990
#	287921
#	298141
#	308036
#	318879
#	330709
#
# Disc length: 4535 seconds
#
# Revision: 1
# Processed by: cddbd v1.5.2PL0 Copyright (c) Steve Scherf et al.
# Submitted via: audiograbber 1.83.01
#
DISCID=f811b521
DTITLE=Various Artist - Country Goes Rock 'n' Roll, Vol. 3: Rural Royalty
DYEAR=1900
DGENRE=Hillbilly
TTITLE0=Eddy Arnold and Jaye P. Morgan - Do You Love Me?
TTITLE1=Thumper Jones - Rock It
TTITLE2=Webb Pierce - Teenage Boogie
TTITLE3=Corky Jones (Buck Owens) - Rhythm and Booze
TTITLE4=Marty Robbins - Pretty Mama
TTITLE5=Ernest Tubb - Thirty Days (To Come Back Home)
TTITLE6=Don Gibson - I Ain't A-Studyin' You, Baby
TTITLE7=Hank Thompson - Rockin' in the Congo
TTITLE8=David Houston - Sugar Sweet
TTITLE9=Billy Walker - I've Got Leavin' on My Mind
TTITLE10=Ferlin Husky - Slow Down, Brother
TTITLE11=Freddie Hart - Snatch It and Grab It
TTITLE12=Jerry Reed - When I Found You
TTITLE13=Bob Wills - So Let's Rock
TTITLE14=George Hamilton IV - If You Don't Know
TTITLE15=Tennessee Ernie Ford - Rock, Roll, Boogie
TTITLE16=Brenda Lee - Bigelow 6200
TTITLE17=Claude King - Run Baby Run
TTITLE18=Wanda Jackson - I Gotta Know
TTITLE19=Patsy Cline - Stop, Look and Listen
TTITLE20=Johnny Horton - I Don't Like I Did
TTITLE21=Little Jimmy Dickens and The Country Boys - Country Boy Bounce
TTITLE22=Johnny and Jack - Carry On
TTITLE23=Pee Wee King - Catty Town
TTITLE24=Bobby Helms - Tennessee Rock 'n' Roll
TTITLE25=Rose Maddox - Hey Little Dreamboat
TTITLE26=Glenn Barber - Feelin' No Pain
TTITLE27=The Louvin Bros. - Cash on the Barrel Head
TTITLE28=The Carlisles - I'm Rough Stuff
TTITLE29=Johnny Bond - The Little Rock Roll
TTITLE30=Moon Mullican - Honolulu Rock-A Roll-A
TTITLE31=Jimmie Skinner - Just Ramblin' On
TTITLE32=Hawkshaw Hawkins - It Would Be a Doggone Lie
EXTD=
EXTT0=
EXTT1=
EXTT2=
EXTT3=
EXTT4=
EXTT5=
EXTT6=
EXTT7=
EXTT8=
EXTT9=
EXTT10=
EXTT11=
EXTT12=
EXTT13=
EXTT14=
EXTT15=
EXTT16=
EXTT17=
EXTT18=
EXTT19=
EXTT20=
EXTT21=
EXTT22=
EXTT23=
EXTT24=
EXTT25=
EXTT26=
EXTT27=
EXTT28=
EXTT29=
EXTT30=
EXTT31=
EXTT32=
PLAYORDER=
